<?xml version="1.0" encoding="iso-8859-1"?>
<!-- Generator: Adobe Illustrator 19.0.0, SVG Export Plug-In . SVG Version: 6.00 Build 0)  -->
<svg version="1.1" id="Capa_1" xmlns="http://www.w3.org/2000/svg" xmlns:xlink="http://www.w3.org/1999/xlink" x="0px" y="0px"
	 viewBox="0 0 512 512" style="enable-background:new 0 0 512 512;" xml:space="preserve">
<path d="M16,192c-8.837,0-16-7.163-16-16V16C0,7.163,7.163,0,16,0h160c8.837,0,16,7.163,16,16s-7.163,16-16,16H32v144
	C32,184.837,24.837,192,16,192z"/>
<path d="M496,192c-8.837,0-16-7.163-16-16V32H336c-8.837,0-16-7.163-16-16s7.163-16,16-16h160c8.837,0,16,7.163,16,16v160
	C512,184.837,504.837,192,496,192z"/>
<path d="M176,512H16c-8.837,0-16-7.163-16-16V336c0-8.837,7.163-16,16-16s16,7.163,16,16v144h144c8.837,0,16,7.163,16,16
	S184.837,512,176,512z"/>
<path d="M496,512H336c-8.837,0-16-7.163-16-16s7.163-16,16-16h144V336c0-8.837,7.163-16,16-16s16,7.163,16,16v160
	C512,504.837,504.837,512,496,512z"/>
<g>
	<path style="fill:#2196F3;" d="M320,352c-6.884-0.005-12.993-4.413-15.168-10.944L256,194.592l-48.832,146.464
		c-2.474,8.483-11.357,13.354-19.84,10.88c-8.483-2.474-13.354-11.357-10.88-19.84c0.113-0.389,0.241-0.773,0.384-1.152l64-192
		c3.779-8.377,13.634-12.104,22.011-8.325c3.697,1.668,6.658,4.628,8.325,8.325l64,192c2.785,8.377-1.739,17.426-10.112,20.224
		C323.428,351.721,321.72,352.002,320,352z"/>
	<path style="fill:#2196F3;" d="M298.56,288h-85.12c-8.837,0-16-7.163-16-16s7.163-16,16-16h85.12c8.837,0,16,7.163,16,16
		S307.397,288,298.56,288z"/>
</g>
<g>
</g>
<g>
</g>
<g>
</g>
<g>
</g>
<g>
</g>
<g>
</g>
<g>
</g>
<g>
</g>
<g>
</g>
<g>
</g>
<g>
</g>
<g>
</g>
<g>
</g>
<g>
</g>
<g>
</g>
</svg>
