<svg xmlns="http://www.w3.org/2000/svg" width="512" height="512">
  <rect width="100%" height="100%" fill="none"/>
  <g class="currentLayer">
    <path d="M29.445 207.126c-8.837 0-16-7.163-16-16v-160c0-8.837 7.163-16 16-16h160c8.837 0 16 7.163 16 16s-7.163 16-16 16h-144v144c0 8.837-7.163 16-16 16zM474.992 206.286c-8.837 0-16-7.163-16-16v-144h-144c-8.837 0-16-7.163-16-16s7.163-16 16-16h160c8.837 0 16 7.163 16 16v160c0 8.837-7.163 16-16 16z" fill-opacity=".6" fill="#64ffda"/>
    <path d="M192.807 472.504h-160c-8.837 0-16-7.163-16-16v-160c0-8.837 7.163-16 16-16s16 7.163 16 16v144h144c8.837 0 16 7.163 16 16s-7.163 16-16 16z" class="selected" fill-opacity=".6" fill="#64ffda"/>
    <path d="M478.353 470.824h-160c-8.837 0-16-7.163-16-16s7.163-16 16-16h144v-144c0-8.837 7.163-16 16-16s16 7.163 16 16v160c0 8.837-7.163 16-16 16z" fill-opacity=".6" fill="#64ffda"/>
    <g fill="#64ffda">
      <path d="M353.63 356.051c-10.856-.006-20.49-5.558-23.92-13.784l-77.012-184.472-77.01 184.472c-3.902 10.685-17.912 16.82-31.29 13.704-13.378-3.116-21.06-14.305-17.158-24.99.178-.489.38-.973.605-1.45L228.777 87.706c5.96-10.55 21.502-15.245 34.713-10.485 5.83 2.1 10.5 5.829 13.13 10.485L377.55 329.53c4.392 10.55-2.742 21.948-15.947 25.472a30.413 30.413 0 01-7.974 1.048z"/>
      <path d="M319.818 275.443h-134.24c-13.936 0-25.232-9.022-25.232-20.152s11.296-20.152 25.232-20.152h134.24c13.936 0 25.233 9.021 25.233 20.152s-11.297 20.152-25.233 20.152z"/>
    </g>
  </g>
</svg>
