<svg xmlns="http://www.w3.org/2000/svg" xmlns:xlink="http://www.w3.org/1999/xlink" version="1.1" width="897.673" height="897.673" style="" xml:space="preserve"><rect id="backgroundrect" width="100%" height="100%" x="0" y="0" fill="none" stroke="none"/>
















<g class="currentLayer" style=""><title>Layer 1</title><g id="svg_1" class="selected" fill-opacity="1" fill="#64ffda">
	<path d="M867.877,843.354 L614.396,11.221000000000004 C610.195,-2.572999999999979 597.469,-12 583.049,-12 H456.836 H330.625 c-14.42,0 -27.146,9.426 -31.347,23.221 L45.795000000000016,843.354 c-6.413,21.055 9.338000000000001,42.318 31.347,42.318 h181.071 c15.246,0 28.479,-10.515 31.922,-25.367 l38.312,-165.216 h128.39 h128.39 l38.312,165.216 c3.443,14.853 16.676000000000002,25.367 31.922,25.367 h181.071 C858.539,885.673 874.291,864.4090000000001 867.877,843.354 zM456.836,511.413 h-85.578 l15.191,-62.147 c22.096,-85.624 44.192,-194.726 66.29,-284.493 h4.097 h4.097 c22.097,89.767 44.193,198.869 66.289,284.493 l15.191,62.147 H456.836 z" id="svg_2" fill="#64ffda"/>
</g><g id="svg_3">
</g><g id="svg_4">
</g><g id="svg_5">
</g><g id="svg_6">
</g><g id="svg_7">
</g><g id="svg_8">
</g><g id="svg_9">
</g><g id="svg_10">
</g><g id="svg_11">
</g><g id="svg_12">
</g><g id="svg_13">
</g><g id="svg_14">
</g><g id="svg_15">
</g><g id="svg_16">
</g><g id="svg_17">
</g></g></svg>