<svg xmlns="http://www.w3.org/2000/svg" width="897.673" height="897.673">
  <rect width="100%" height="100%" fill="none"/>
  <g class="currentLayer">
    <path d="M867.877 843.354L614.396 11.221C610.195-2.573 597.469-12 583.049-12H330.625c-14.42 0-27.146 9.426-31.347 23.221L45.795 843.354c-6.413 21.055 9.338 42.318 31.347 42.318h181.071c15.246 0 28.479-10.515 31.922-25.367l38.312-165.216h256.78l38.312 165.216c3.443 14.853 16.676 25.367 31.922 25.367h181.071c22.007.001 37.759-21.263 31.345-42.318zM456.836 511.413h-85.578l15.191-62.147c22.096-85.624 44.192-194.726 66.29-284.493h8.194c22.097 89.767 44.193 198.869 66.289 284.493l15.191 62.147h-85.577z" fill="#64ffda"/>
  </g>
</svg>
