<svg xmlns="http://www.w3.org/2000/svg" xmlns:xlink="http://www.w3.org/1999/xlink" version="1.1" style="" xml:space="preserve" width="512" height="512"><rect id="backgroundrect" width="100%" height="100%" x="0" y="0" fill="none" stroke="none"/>




















<g class="currentLayer" style=""><title>Layer 1</title><path d="M29.445377349853516,207.12604999542236 c-8.837,0 -16,-7.163 -16,-16 V31.126049995422363 C13.445377349853516,22.289049995422364 20.608377349853516,15.126049995422363 29.445377349853516,15.126049995422363 h160 c8.837,0 16,7.163 16,16 s-7.163,16 -16,16 H45.445377349853516 v144 C45.445377349853516,199.96304999542235 38.28237734985352,207.12604999542236 29.445377349853516,207.12604999542236 z" id="svg_1" class="" fill-opacity="0.6" fill="#64ffda"/><path d="M474.99159812927246,206.28571319580078 c-8.837,0 -16,-7.163 -16,-16 V46.28571319580078 H314.99159812927246 c-8.837,0 -16,-7.163 -16,-16 s7.163,-16 16,-16 h160 c8.837,0 16,7.163 16,16 v160 C490.99159812927246,199.12271319580077 483.82859812927245,206.28571319580078 474.99159812927246,206.28571319580078 z" id="svg_2" class="" fill-opacity="0.6" fill="#64ffda"/><path d="M192.8067226409912,472.5042037963867 H32.80672264099121 c-8.837,0 -16,-7.163 -16,-16 V296.5042037963867 c0,-8.837 7.163,-16 16,-16 s16,7.163 16,16 v144 h144 c8.837,0 16,7.163 16,16 S201.6437226409912,472.5042037963867 192.8067226409912,472.5042037963867 z" id="svg_3" class="selected" fill-opacity="0.6" fill="#64ffda"/><path d="M478.3529415130615,470.8235321044922 H318.3529415130615 c-8.837,0 -16,-7.163 -16,-16 s7.163,-16 16,-16 h144 V294.8235321044922 c0,-8.837 7.163,-16 16,-16 s16,7.163 16,16 v160 C494.3529415130615,463.6605321044922 487.1899415130615,470.8235321044922 478.3529415130615,470.8235321044922 z" id="svg_4" class="" fill-opacity="0.6" fill="#64ffda"/><g id="svg_5" class="" fill-opacity="1" fill="#64ffda">
	<path style="" d="M353.63015860934627,356.0511443968648 c-10.856490539065405,-0.006297527453343015 -20.490758508727016,-5.55819773032054 -23.920867009957004,-13.784028089877177 L252.6982302972914,157.79490412170156 l-77.01106130209789,184.47221218528608 c-3.901649853812872,10.684385077341748 -17.910686091250113,16.819436322388505 -31.288897776737013,13.703419738474388 c-13.3782116854869,-3.1160165839141207 -21.0600776668622,-14.304203857523309 -17.15842781304933,-24.988588934865053 c0.1782079359259721,-0.4899476358700862 0.3800717925500823,-0.9735977442868292 0.6055915698723293,-1.4509503252502294 l100.93192831205488,-241.8250542083715 c5.959714954550866,-10.550877495330877 21.50165485322744,-15.245054459052753 34.7126980324475,-10.485383209816108 c5.8303959214010455,2.1008551584352277 10.500074667213461,5.828991410814288 13.129035987466514,10.485383209816108 l100.93192831205488,241.8250542083715 c4.3921159429542636,10.550877495330877 -2.7425097396041163,21.948142680391047 -15.947244673304672,25.4722390432818 C359.03632501956065,355.69974236496824 356.34270418273275,356.0536634078461 353.63015860934627,356.0511443968648 z" id="svg_6" fill="#64ffda"/>
	<path style="" d="M319.8179626248079,275.4427929940743 h-134.239464655033 c-13.936491413962953,0 -25.23298207801372,-9.021837829659193 -25.23298207801372,-20.152087850697626 s11.296490664050767,-20.152087850697626 25.23298207801372,-20.152087850697626 h134.239464655033 c13.936491413962953,0 25.23298207801372,9.021837829659193 25.23298207801372,20.152087850697626 S333.7544540387708,275.4427929940743 319.8179626248079,275.4427929940743 z" id="svg_7" fill="#64ffda"/>
</g><g id="svg_8">
</g><g id="svg_9">
</g><g id="svg_10">
</g><g id="svg_11">
</g><g id="svg_12">
</g><g id="svg_13">
</g><g id="svg_14">
</g><g id="svg_15">
</g><g id="svg_16">
</g><g id="svg_17">
</g><g id="svg_18">
</g><g id="svg_19">
</g><g id="svg_20">
</g><g id="svg_21">
</g><g id="svg_22">
</g></g></svg>